<svg xmlns="http://www.w3.org/2000/svg" xml:space="preserve" style="fill-rule:evenodd;clip-rule:evenodd;stroke-linejoin:round;stroke-miterlimit:2" viewBox="0 0 1250 92"><path d="M533.743 37.057H625v16.032h-91.257zM437.523 31.508h28.364c8.633 0 14.881 1.973 18.745 5.919 3.946 3.864 5.919 10.112 5.919 18.745v7.399c0 8.632-1.973 14.922-5.919 18.868-3.864 3.864-10.112 5.796-18.745 5.796h-50.561V1.911h22.197v29.597Zm85.092 56.727h-22.198V1.911h22.198v86.324Zm-54.261-32.063c0-4.933-2.467-7.4-7.4-7.4h-23.431V70.97h23.431c4.933 0 7.4-2.466 7.4-7.399v-7.399ZM405.445 87.002c-18.333 1.644-33.543 2.466-45.628 2.466-8.057 0-13.976-1.891-17.758-5.673-3.782-3.781-5.673-9.701-5.673-17.758V26.575c0-8.633 1.932-14.881 5.796-18.745 3.946-3.946 10.236-5.919 18.868-5.919h44.395v17.264h-39.462c-4.933 0-7.399 2.467-7.399 7.4v39.462c0 1.891.534 3.412 1.603 4.563 1.151 1.069 2.59 1.603 4.316 1.603h5.673c2.055-.082 4.193-.164 6.412-.246l6.66-.247c2.302-.082 5.22-.247 8.756-.493 3.617-.247 8.098-.535 13.441-.863v16.648ZM328.972 87.002c-18.334 1.644-33.543 2.466-45.629 2.466-8.057 0-13.976-1.891-17.758-5.673-3.782-3.781-5.673-9.701-5.673-17.758V26.575c0-8.633 1.932-14.881 5.796-18.745 3.947-3.946 10.236-5.919 18.868-5.919h44.396v17.264h-39.463c-4.933 0-7.399 2.467-7.399 7.4v39.462c0 1.891.534 3.412 1.603 4.563 1.151 1.069 2.59 1.603 4.316 1.603h5.673c2.056-.082 4.193-.164 6.413-.246l6.659-.247c2.302-.082 5.221-.247 8.756-.493 3.618-.247 8.098-.535 13.442-.863v16.648ZM227.791 25.342c0-4.933-2.466-7.4-7.399-7.4h-20.965c-4.932 0-7.399 2.467-7.399 7.4v39.462c0 4.933 2.467 7.399 7.399 7.399h20.965c4.933 0 7.399-2.466 7.399-7.399V25.342Zm22.198 39.462c0 8.633-1.973 14.922-5.92 18.868-3.864 3.864-10.112 5.796-18.744 5.796h-30.83c-8.633 0-14.922-1.932-18.868-5.796-3.864-3.946-5.796-10.235-5.796-18.868V25.342c0-8.633 1.932-14.881 5.796-18.745 3.946-3.946 10.235-5.92 18.868-5.92h30.83c8.632 0 14.88 1.974 18.744 5.92 3.947 3.864 5.92 10.112 5.92 18.745v39.462ZM83.217 1.911h51.795c8.632 0 14.88 1.973 18.745 5.919 3.946 3.864 5.919 10.112 5.919 18.745v12.332c0 8.632-1.973 14.922-5.919 18.868-3.865 3.864-10.113 5.796-18.745 5.796h-29.597v24.664H83.217V1.911Zm54.261 24.664c0-4.933-2.466-7.4-7.399-7.4h-24.664v27.131h24.664c4.933 0 7.399-2.466 7.399-7.399V26.575ZM62.893.677c2.056 0 5.755.411 11.099 1.234v16.648h-4.933c-1.233 0-2.343.411-3.329 1.233-.987.74-1.727 1.562-2.22 2.467L51.795 44.456l24.047 43.779H52.411L33.296 53.089H22.198v35.146H0V1.911h22.198v33.913h11.098l12.333-23.431c1.808-3.453 4.028-6.248 6.659-8.386 2.713-2.22 6.248-3.33 10.605-3.33ZM1168.26 69.374h22.105v18.421h-22.105zM1100.1 87.794h-23.947l32.543-85.962h24.561l32.542 85.962h-23.946l-5.526-15.35h-30.701l-5.526 15.35Zm11.052-31.315h19.648l-9.824-28.858-9.824 28.858Z" style="fill:#edf2ff;fill-rule:nonzero"/><path d="M1064.51.604c2.047 0 5.731.409 11.052 1.228V18.41h-4.912c-1.228 0-2.333.41-3.316 1.228-.982.737-1.719 1.556-2.21 2.456l-11.666 22.105 23.946 43.595h-23.332l-19.035-34.999h-11.052v34.999h-22.105V1.832h22.105v33.771h11.052l12.281-23.333c1.801-3.438 4.011-6.222 6.631-8.351 2.702-2.21 6.222-3.315 10.561-3.315ZM965.034 59.549c-9.824.819-19.116 1.228-27.876 1.228-8.678 0-14.9-1.883-18.666-5.649-3.766-3.765-5.649-9.66-5.649-17.683V1.832h22.105v35.613c0 1.883.532 3.397 1.596 4.544 1.146 1.064 2.661 1.596 4.544 1.596 6.713 0 14.695-.409 23.946-1.228V1.832h22.105v85.962h-22.105V59.549ZM886.997 25.164c0-4.912-2.456-7.368-7.368-7.368h-20.876c-4.913 0-7.369 2.456-7.369 7.368v39.298c0 4.912 2.456 7.368 7.369 7.368h20.876c4.912 0 7.368-2.456 7.368-7.368V25.164Zm22.105 39.298c0 8.596-1.965 14.859-5.895 18.788-3.848 3.848-10.07 5.772-18.666 5.772H853.84c-8.596 0-14.859-1.924-18.789-5.772-3.847-3.929-5.771-10.192-5.771-18.788V25.164c0-8.596 1.924-14.818 5.771-18.666 3.93-3.929 10.193-5.894 18.789-5.894h30.701c8.596 0 14.818 1.965 18.666 5.894 3.93 3.848 5.895 10.07 5.895 18.666v39.298ZM803.476 87.794h-22.104v-68.77h-25.789V1.832h73.682v17.192h-25.789v68.77ZM710.112 87.794h-22.104V34.989l-29.473 52.805h-23.333V1.832h22.105v52.805l29.472-52.805h23.333v85.962Z" style="fill:#edf2ff;fill-rule:nonzero"/></svg>